<svg aria-hidden="true" style="position: absolute; width: 0; height: 0; overflow: hidden;" version="1.1" xmlns="http://www.w3.org/2000/svg" xmlns:xlink="http://www.w3.org/1999/xlink">
  <defs>

    <symbol id="check" aria-hidden="true" xmlns="http://www.w3.org/2000/svg" fill="none" viewBox="0 0 24 24">
      <path stroke="currentColor" stroke-linecap="round" stroke-linejoin="round" d="M5 11.917 9.724 16.5 19 7.5"/>
    </symbol>

    <symbol id="eye" aria-hidden="true" xmlns="http://www.w3.org/2000/svg" fill="none" viewBox="0 0 24 24">
      <path stroke="currentColor" stroke-linecap="round" stroke-linejoin="round" d="M21 12c0 1.2-4.03 6-9 6s-9-4.8-9-6c0-1.2 4.03-6 9-6s9 4.8 9 6Z"/>
      <path stroke="currentColor" stroke-linecap="round" stroke-linejoin="round" d="M15 12a3 3 0 1 1-6 0 3 3 0 0 1 6 0Z"/>
    </symbol>

    <symbol id="eye/" aria-hidden="true" xmlns="http://www.w3.org/2000/svg" fill="none" viewBox="0 0 24 24">
      <path stroke="currentColor" stroke-linecap="round" stroke-linejoin="round" d="M3.933 13.909A4.357 4.357 0 0 1 3 12c0-1 4-6 9-6m7.6 3.8A5.068 5.068 0 0 1 21 12c0 1-3 6-9 6-.314 0-.62-.014-.918-.04M5 19 19 5m-4 7a3 3 0 1 1-6 0 3 3 0 0 1 6 0Z"/>
    </symbol>

  </defs>
</svg>
